<svg xmlns="http://www.w3.org/2000/svg" width="204" height="32"><defs><clipPath id="A"><path d="M0 0h204v32H0z"/></clipPath></defs><g clip-path="url(#A)"><path d="M1.524 0h28.952c.404 0 .792.16 1.078.446S32 1.12 32 1.524v28.952c0 .404-.16.792-.446 1.078S30.88 32 30.476 32H1.524c-.404 0-.792-.16-1.078-.446S0 30.88 0 30.476V1.524C0 .682.682 0 1.524 0z" fill="#fdbc33"/><path d="M6.857 23.707l14.3-14.423h-7.3l2.478-2.173h8.81v9.656l-2.33 2.413.037-8.147L8.487 25.397z" fill="#262626"/><path d="M37.136 7.1a2.5 2.5 0 0 0 .559 1.7 1.93 1.93 0 0 0 1.537.644 2.31 2.31 0 0 0 1.533-.478 1.61 1.61 0 0 0 .569-1.3 1.84 1.84 0 0 0-.327-1.105c-.398-.442-.877-.804-1.412-1.065a4.37 4.37 0 0 1-1.533-1.314 2.78 2.78 0 0 1-.428-1.523 2.37 2.37 0 0 1 .9-1.93c1.3-.854 2.95-.975 4.36-.32a1.23 1.23 0 0 1 .714 1.072q0 .957-1.22.957a1.97 1.97 0 0 0-.384-1.281 1.38 1.38 0 0 0-1.132-.472 1.94 1.94 0 0 0-1.348.472 1.62 1.62 0 0 0-.526 1.267 1.8 1.8 0 0 0 .28 1.015c.398.458.882.83 1.426 1.1.597.318 1.128.745 1.567 1.26a2.28 2.28 0 0 1 .482 1.429 2.58 2.58 0 0 1-.957 2.133 4.16 4.16 0 0 1-2.662.765c-.784.04-1.563-.153-2.237-.556a1.65 1.65 0 0 1-.829-1.412 1.01 1.01 0 0 1 .3-.765c.207-.196.483-.302.768-.292zM49.294.14l-.12.58h-.182a1.45 1.45 0 0 0-.95.249 1.28 1.28 0 0 0-.391.741l-1.43 6.767a2.41 2.41 0 0 0-.061.384q0 .553 1 .553h.175l-.12.58h-4.017l.108-.58h.182a1.21 1.21 0 0 0 1.355-.991l1.435-6.766a2.07 2.07 0 0 0 .054-.384q0-.553-1-.553h-.175l.12-.58zm8.2 1.517a2.07 2.07 0 0 0 .054-.384q0-.553-1-.553h-.182l.128-.58h3.464l-.128.58h-.175a1.43 1.43 0 0 0-.947.253 1.34 1.34 0 0 0-.394.738l-1.752 8.283h-.9L52.12 1.907l-1.384 6.57c-.03.126-.05.255-.06.384q0 .553 1 .553h.175l-.12.58h-3.45l.12-.58h.182a1.14 1.14 0 0 0 1.328-.991l1.435-6.766c.03-.126.048-.255.054-.384q0-.553-1-.553h-.175l.12-.58h2.514l3.34 7.617zm8.823 6.323a.53.53 0 0 1 .182.458 1.44 1.44 0 0 1-.768 1.176 3.76 3.76 0 0 1-2.116.516 3.9 3.9 0 0 1-2.807-.964 3.6 3.6 0 0 1-1.007-2.729c-.03-1.658.55-3.27 1.63-4.526A5.12 5.12 0 0 1 65.49-.001a3.59 3.59 0 0 1 1.88.414c.416.22.675.652.674 1.122a.94.94 0 0 1-.371.782c-.286.205-.633.308-.984.3q0-1.874-1.375-1.874A3.33 3.33 0 0 0 62.46 2.59a7.57 7.57 0 0 0-1.149 4.06q0 2.58 2.453 2.58a3.05 3.05 0 0 0 2.554-1.252zm3.976 1.327h2.662a1.53 1.53 0 0 0 1.563-1.132l.216-.593h.72l-.607 2.413h-7.4l.108-.58h.182a1.47 1.47 0 0 0 .974-.246 1.24 1.24 0 0 0 .367-.677l1.436-6.78a1.62 1.62 0 0 0 .04-.33.62.62 0 0 0-.19-.492 1.25 1.25 0 0 0-.782-.169H69.4l.12-.58h6.955l-.438 2.413h-.72l.04-.425q.034-.323.034-.378 0-.923-.984-.923H72.1L71.3 4.5h3.33l-.135.674H71.18zM85.8.088l-1.78 8.4a2.07 2.07 0 0 0-.054.384q0 .553 1 .553h.74l-.12.58H80.45l.108-.58h.734a1.48 1.48 0 0 0 .95-.246 1.25 1.25 0 0 0 .4-.745l1.078-5.082q.236-1.105.512-2.17h-.054a11.09 11.09 0 0 1-1.294 1.146c-.228.174-.502.275-.788.3q-.553 0-.553-.74a7.92 7.92 0 0 0 2.26-1.075L84.922.1zm7.294 5.175a2.84 2.84 0 0 1-2.11.937c-.628.032-1.243-.195-1.7-.627a2.24 2.24 0 0 1-.63-1.665 3.89 3.89 0 0 1 1.061-2.8 3.43 3.43 0 0 1 2.578-1.112A2.43 2.43 0 0 1 94.14.71a2.8 2.8 0 0 1 .681 2.008 10.54 10.54 0 0 1-1.267 5.031 3.87 3.87 0 0 1-3.5 2.376q-1.927 0-1.927-1.24a.8.8 0 0 1 .216-.573.78.78 0 0 1 .6-.23 1.56 1.56 0 0 0 .354 1 1.1 1.1 0 0 0 .873.371c.68-.023 1.3-.394 1.64-.98a10.8 10.8 0 0 0 1.283-3.21zm.222-1a7.03 7.03 0 0 0 .216-1.631q0-1.874-1.28-1.874a1.88 1.88 0 0 0-1.567.971 3.86 3.86 0 0 0-.657 2.217 1.57 1.57 0 0 0 .354 1.112 1.24 1.24 0 0 0 .947.377 2.5 2.5 0 0 0 1.987-1.169zm7.494 1a2.84 2.84 0 0 1-2.109.937c-.628.032-1.243-.195-1.7-.627a2.24 2.24 0 0 1-.63-1.665 3.89 3.89 0 0 1 1.062-2.8 3.43 3.43 0 0 1 2.578-1.112 2.43 2.43 0 0 1 1.847.714 2.8 2.8 0 0 1 .681 2.008c.004 1.756-.432 3.486-1.267 5.03-.592 1.416-1.965 2.35-3.5 2.376q-1.928 0-1.927-1.24a.8.8 0 0 1 .216-.573.78.78 0 0 1 .6-.23 1.56 1.56 0 0 0 .354 1 1.1 1.1 0 0 0 .873.371c.68-.023 1.3-.394 1.64-.98.596-.994 1.03-2.078 1.28-3.2zm.222-1a7.03 7.03 0 0 0 .216-1.631q0-1.874-1.28-1.874a1.88 1.88 0 0 0-1.567.97 3.86 3.86 0 0 0-.657 2.217 1.57 1.57 0 0 0 .354 1.112 1.24 1.24 0 0 0 .947.377 2.5 2.5 0 0 0 1.988-1.169zm7.495 1a2.84 2.84 0 0 1-2.109.937c-.628.032-1.243-.195-1.7-.627a2.24 2.24 0 0 1-.63-1.665 3.89 3.89 0 0 1 1.062-2.8 3.43 3.43 0 0 1 2.578-1.112 2.43 2.43 0 0 1 1.847.714 2.8 2.8 0 0 1 .681 2.008 10.54 10.54 0 0 1-1.267 5.031c-.592 1.416-1.965 2.35-3.5 2.376q-1.928 0-1.928-1.24a.8.8 0 0 1 .216-.573.79.79 0 0 1 .6-.23 1.56 1.56 0 0 0 .354 1c.22.25.54.385.873.37.68-.023 1.3-.394 1.64-.98a10.8 10.8 0 0 0 1.282-3.21zm.222-1c.136-.533.208-1.08.216-1.63q0-1.874-1.28-1.874a1.88 1.88 0 0 0-1.567.971 3.86 3.86 0 0 0-.657 2.217 1.57 1.57 0 0 0 .354 1.112 1.24 1.24 0 0 0 .947.377 2.5 2.5 0 0 0 1.987-1.169z" fill="#717272"/><path d="M53.456 31.982h-3.954l-2.022-8.1q-.045-.168-.107-.472-.062-.304-.14-.685-.08-.382-.157-.8-.078-.418-.146-.8-.067-.393-.118-.724l-.073-.534-.073.534-.118.72-.14.8q-.073.416-.146.8-.073.384-.14.7-.067.315-.112.494l-2 8.076h-3.965L36.1 15.56h3.426l1.865 8.964q.034.18.1.522.066.343.14.77.078.427.163.9.085.473.163.92l.146.837q.067.387.1.635.034-.247.1-.63.066-.382.13-.814.067-.432.152-.893.085-.46.152-.86.067-.4.13-.708.062-.308.1-.443l2.28-9.2h3.055l2.28 9.2q.034.134.1.443.066.3.135.708.073.4.152.86.08.46.152.893.073.433.135.814.062.38.1.63.034-.247.1-.635.066-.388.14-.837.078-.45.163-.92.085-.472.163-.9.078-.427.14-.77.062-.343.1-.522l1.865-8.964h3.426zm15.48 0h-9.458V15.56h9.458v2.853H62.96v3.605h5.56v2.853h-5.56v4.235h5.976zM72.36 15.56h4.808a14.9 14.9 0 0 1 2.718.219 5.57 5.57 0 0 1 1.955.708 3.17 3.17 0 0 1 1.185 1.281c.284.6.42 1.277.4 1.95.003.44-.054.876-.17 1.3a3.41 3.41 0 0 1-.494 1.067 2.97 2.97 0 0 1-.792.769 2.65 2.65 0 0 1-1.073.4v.112a5.35 5.35 0 0 1 1.152.388 2.93 2.93 0 0 1 .932.7 3.19 3.19 0 0 1 .629 1.117c.165.53.243 1.084.23 1.64.012.7-.122 1.372-.393 2.005a3.99 3.99 0 0 1-1.13 1.493 5.13 5.13 0 0 1-1.786.938 8.01 8.01 0 0 1-2.376.326h-5.8zm3.482 6.5h1.8a4.26 4.26 0 0 0 1.09-.118 1.73 1.73 0 0 0 .707-.354 1.32 1.32 0 0 0 .388-.589 2.61 2.61 0 0 0 .118-.826 1.53 1.53 0 0 0-.59-1.354c-.57-.316-1.22-.46-1.87-.4h-1.65zm0 2.763v4.28h2.044a3.63 3.63 0 0 0 1.151-.157 1.87 1.87 0 0 0 .753-.449c.193-.198.334-.442.4-.708a3.23 3.23 0 0 0 .124-.921 2.73 2.73 0 0 0-.124-.837 1.48 1.48 0 0 0-.42-.646 2.02 2.02 0 0 0-.781-.416 4.23 4.23 0 0 0-1.2-.146zm11.288 7.16V15.56h3.482v13.546h5.976v2.875zm18.457 0h-7.47v-1.977l2-.92V18.458l-2-.92V15.56h7.47v1.977l-2 .92v10.626l2 .92zm16.68 0h-4.414l-6.46-12.423h-.1q.067.865.112 1.718.045.73.073 1.533.028.802.028 1.443v7.728h-3.1V15.56h4.392l6.448 12.3h.068q-.034-.854-.08-1.685-.01-.36-.028-.736-.017-.376-.028-.753-.01-.376-.017-.725l-.006-.63v-7.77h3.123zm13.604 0h-9.458V15.56h9.458v2.853h-5.976v3.605h5.56v2.853h-5.56v4.235h5.976zm9.57 0h-7.472v-1.977l2-.92V18.458l-2-.92V15.56h7.47v1.977l-2 .92v10.626l2 .92zm16.68 0h-4.414l-6.46-12.423h-.1q.067.865.112 1.718.044.73.073 1.533.03.802.028 1.443v7.728h-3.1V15.56h4.392l6.448 12.3h.068q-.034-.854-.08-1.685-.01-.36-.028-.736-.017-.376-.028-.753-.01-.376-.017-.725-.006-.35-.006-.63v-7.77h3.123zm16.848-8.364a10.69 10.69 0 0 1-.567 3.645 6.6 6.6 0 0 1-4.268 4.2 11 11 0 0 1-3.544.528h-4.325V15.56h4.807a9.7 9.7 0 0 1 3.263.517c.932.32 1.782.845 2.488 1.533a6.77 6.77 0 0 1 1.59 2.522c.4 1.12.578 2.3.556 3.486zm-3.527.1a8.93 8.93 0 0 0-.275-2.364c-.152-.597-.424-1.157-.8-1.646a3.18 3.18 0 0 0-1.281-.966 4.5 4.5 0 0 0-1.736-.315h-1.606v10.7h1.28a4.03 4.03 0 0 0 3.308-1.348 6.29 6.29 0 0 0 1.109-4.055zm12.87 8.264h-7.47v-1.977l2-.92V18.458l-2-.92V15.56h7.47v1.977l-2 .92v10.626l2 .92zm12.175-.002l-1.123-3.9H193.7l-1.135 3.9h-3.515l5.335-16.5h4.257L204 31.98zm-1.932-6.83l-1.056-3.594q-.068-.2-.2-.663-.132-.463-.286-1.016-.152-.556-.286-1.118-.134-.562-.2-.954-.045.247-.118.584-.073.337-.168.713-.1.376-.2.758-.1.382-.2.72-.1.337-.163.6l-.107.382-1.045 3.594z" fill="#282928"/></g></svg>